<svg width="16" height="25" viewBox="0 0 16 25" fill="none" xmlns="http://www.w3.org/2000/svg">
<path d="M14.4202 15.6942H5.11549L5.58268 14.7427L13.3452 14.7286C13.6077 14.7286 13.8327 14.5411 13.8796 14.2817L14.9546 8.26455C14.9827 8.10674 14.9405 7.94424 14.8374 7.8208C14.7864 7.76005 14.7228 7.71112 14.6511 7.67739C14.5793 7.64366 14.501 7.62595 14.4217 7.62549L4.54674 7.59268L4.46237 7.1958C4.40924 6.94268 4.18112 6.7583 3.92174 6.7583H1.50768C1.36139 6.7583 1.2211 6.81641 1.11766 6.91985C1.01423 7.02329 0.956116 7.16358 0.956116 7.30986C0.956116 7.45615 1.01423 7.59644 1.11766 7.69988C1.2211 7.80331 1.36139 7.86143 1.50768 7.86143H3.47487L3.84362 9.61455L4.75143 14.0099L3.58268 15.9177C3.52198 15.9996 3.48543 16.0969 3.47714 16.1985C3.46886 16.3001 3.48918 16.402 3.5358 16.4927C3.62955 16.6786 3.81862 16.7958 4.02799 16.7958H5.00924C4.80005 17.0736 4.68706 17.4121 4.68737 17.7599C4.68737 18.6442 5.40612 19.363 6.29049 19.363C7.17487 19.363 7.89362 18.6442 7.89362 17.7599C7.89362 17.4114 7.77799 17.0724 7.57174 16.7958H10.0889C9.87974 17.0736 9.76675 17.4121 9.76705 17.7599C9.76705 18.6442 10.4858 19.363 11.3702 19.363C12.2546 19.363 12.9733 18.6442 12.9733 17.7599C12.9733 17.4114 12.8577 17.0724 12.6514 16.7958H14.4217C14.7249 16.7958 14.9733 16.5489 14.9733 16.2442C14.9724 16.0981 14.9137 15.9583 14.8101 15.8552C14.7065 15.7522 14.5663 15.6943 14.4202 15.6942ZM4.77643 8.68018L13.7733 8.70986L12.8921 13.6442L5.82486 13.6567L4.77643 8.68018ZM6.29049 18.2536C6.01862 18.2536 5.79674 18.0317 5.79674 17.7599C5.79674 17.488 6.01862 17.2661 6.29049 17.2661C6.56237 17.2661 6.78424 17.488 6.78424 17.7599C6.78424 17.8908 6.73222 18.0164 6.63962 18.109C6.54703 18.2016 6.42144 18.2536 6.29049 18.2536ZM11.3702 18.2536C11.0983 18.2536 10.8764 18.0317 10.8764 17.7599C10.8764 17.488 11.0983 17.2661 11.3702 17.2661C11.6421 17.2661 11.8639 17.488 11.8639 17.7599C11.8639 17.8908 11.8119 18.0164 11.7193 18.109C11.6267 18.2016 11.5011 18.2536 11.3702 18.2536Z" fill="white"/>
</svg>
